<svg width="593" height="117" viewBox="0 0 593 117" fill="none" xmlns="http://www.w3.org/2000/svg">
<g clip-path="url(#clip0_12_26)">
<path fill-rule="evenodd" clip-rule="evenodd" d="M578.053 88.9159C578.412 92.9896 581.682 98.1743 587.347 98.1743H590.662C591.946 98.1743 593 97.1248 593 95.8437V23.2044H592.985C592.918 21.9807 591.904 21.0005 590.662 21.0005H580.391C579.149 21.0005 578.135 21.9807 578.066 23.2044H578.053V29.1068C571.761 21.3775 561.84 18.1693 551.891 18.1693C529.276 18.1693 510.944 36.4511 510.944 59.0042C510.944 81.5585 529.276 99.8406 551.891 99.8406V99.843C561.84 99.843 572.681 95.9938 578.052 88.9064L578.053 88.9159ZM551.931 85.5489C537.548 85.5489 525.887 73.6657 525.887 59.0043C525.887 44.3454 537.548 32.4613 551.931 32.4613C566.313 32.4613 577.972 44.3454 577.972 59.0043C577.972 73.6657 566.313 85.5489 551.931 85.5489Z" fill="white"/>
<path fill-rule="evenodd" clip-rule="evenodd" d="M497.959 91.4142L497.955 53.8265H497.956C497.956 32.6385 484.552 18.3447 463.177 18.3447C452.974 18.3447 444.61 24.2285 441.656 29.2828C441.018 25.3307 438.914 21.1766 432.389 21.1766H429.063C427.777 21.1766 426.726 22.2268 426.726 23.5081V89.0979C426.726 89.0997 426.726 89.105 426.726 89.1079V96.1533H426.739C426.807 97.3753 427.823 98.3568 429.065 98.3568H439.335C439.492 98.3568 439.647 98.3379 439.796 98.309C439.864 98.296 439.927 98.2694 439.993 98.2505C440.069 98.2274 440.149 98.2091 440.221 98.1796C440.313 98.1417 440.396 98.0909 440.481 98.0436C440.523 98.0182 440.566 98.0005 440.606 97.9733C440.709 97.9077 440.803 97.8286 440.894 97.7476C440.909 97.7322 440.926 97.7228 440.941 97.7092C441.043 97.6105 441.136 97.5018 441.219 97.3889C441.22 97.3871 441.22 97.3872 441.22 97.3872C441.477 97.035 441.633 96.6113 441.659 96.1533H441.672V53.2438C441.672 41.8643 450.923 32.6385 462.335 32.6385C473.747 32.6385 482.998 41.8643 482.998 53.2438L483.007 89.1103L483.01 89.0979C483.01 89.1298 483.015 89.1623 483.015 89.1966V96.1533H483.029C483.096 97.3753 484.111 98.3568 485.353 98.3568H495.624C495.782 98.3568 495.935 98.3379 496.084 98.309C496.145 98.2977 496.201 98.2735 496.26 98.257C496.345 98.2327 496.431 98.2115 496.512 98.1796C496.595 98.1447 496.672 98.0962 496.751 98.0519C496.8 98.0247 496.851 98.0046 496.898 97.9733C496.992 97.9119 497.079 97.8368 497.164 97.7624C497.186 97.7423 497.21 97.7275 497.231 97.7068C497.328 97.6135 497.415 97.5124 497.494 97.4066C497.5 97.3984 497.506 97.3919 497.512 97.3842C497.765 97.035 497.92 96.6142 497.947 96.1598C497.947 96.1569 497.948 96.1533 497.948 96.1533H497.962V91.4154L497.959 91.4142Z" fill="white"/>
<path fill-rule="evenodd" clip-rule="evenodd" d="M390.995 88.9159C391.355 92.9896 394.624 98.1743 400.289 98.1743H403.603C404.889 98.1743 405.94 97.1248 405.94 95.8437V23.2044H405.927C405.86 21.9807 404.844 21.0005 403.603 21.0005H393.333C392.091 21.0005 391.076 21.9807 391.007 23.2044H390.995V29.1068C384.702 21.3775 374.781 18.1693 364.831 18.1693C342.217 18.1693 323.885 36.4511 323.885 59.0042C323.885 81.5585 342.217 99.8406 364.831 99.8406V99.843C374.781 99.843 385.624 95.9938 390.994 88.9064L390.995 88.9159ZM364.871 85.5489C350.49 85.5489 338.83 73.6657 338.83 59.0043C338.83 44.3454 350.49 32.4613 364.871 32.4613C379.254 32.4613 390.912 44.3454 390.912 59.0043C390.912 73.6657 379.254 85.5489 364.871 85.5489Z" fill="white"/>
<path fill-rule="evenodd" clip-rule="evenodd" d="M263.147 78.5123C270.004 83.249 277.488 85.5494 284.68 85.5494C291.531 85.5494 298.615 82.0075 298.615 75.8419C298.615 67.6106 283.18 66.3301 273.482 63.0428C263.783 59.7562 255.429 52.9617 255.429 41.9586C255.429 25.1218 270.473 18.1681 284.513 18.1681C293.409 18.1681 302.588 21.0936 308.539 25.2843C310.588 26.8329 309.34 28.6108 309.34 28.6108L303.66 36.7015C303.021 37.6128 301.905 38.4002 300.302 37.4138C298.7 36.4281 293.079 32.4606 284.513 32.4606C275.947 32.4606 270.786 36.4058 270.786 41.2959C270.786 47.1597 277.493 49.0041 285.349 51.0027C299.038 54.6826 313.972 59.1056 313.972 75.8419C313.972 90.6767 300.057 99.8441 284.68 99.8441C273.026 99.8441 263.105 96.5308 254.783 90.4415C253.05 88.7113 254.261 87.1053 254.261 87.1053L259.913 79.0553C261.063 77.5503 262.513 78.075 263.147 78.5123Z" fill="white"/>
<path fill-rule="evenodd" clip-rule="evenodd" d="M223.664 88.9159C224.023 92.9896 227.293 98.1743 232.958 98.1743H236.273C237.557 98.1743 238.61 97.1248 238.61 95.8437V23.2044H238.596C238.529 21.9807 237.514 21.0005 236.273 21.0005H226.002C224.76 21.0005 223.745 21.9807 223.676 23.2044H223.664V29.1068C217.371 21.3775 207.45 18.1693 197.501 18.1693C174.887 18.1693 156.554 36.4511 156.554 59.0042C156.554 81.5585 174.887 99.8406 197.501 99.8406V99.843C207.45 99.843 218.292 95.9938 223.662 88.9064L223.664 88.9159ZM197.541 85.5489C183.159 85.5489 171.499 73.6657 171.499 59.0043C171.499 44.3454 183.159 32.4613 197.541 32.4613C211.923 32.4613 223.582 44.3454 223.582 59.0043C223.582 73.6657 211.923 85.5489 197.541 85.5489Z" fill="white"/>
<path fill-rule="evenodd" clip-rule="evenodd" d="M99.1478 61.7819C83.9291 61.7819 71.5923 74.0758 71.5923 89.2415C71.5923 104.407 83.9291 116.7 99.1478 116.7C114.367 116.7 126.703 104.407 126.703 89.2415C126.703 74.0758 114.367 61.7819 99.1478 61.7819ZM27.5557 61.7843C12.3372 61.7843 0 74.0758 0 89.2415C0 104.407 12.3372 116.7 27.5557 116.7C42.7748 116.7 55.1126 104.407 55.1126 89.2415C55.1126 74.0758 42.7748 61.7843 27.5557 61.7843ZM90.9069 27.458C90.9069 42.624 78.5701 54.919 63.352 54.919C48.1327 54.919 35.796 42.624 35.796 27.458C35.796 12.2949 48.1327 0 63.352 0C78.5701 0 90.9069 12.2949 90.9069 27.458Z" fill="#F06A6A"/>
</g>
<defs>
<clipPath id="clip0_12_26">
<rect width="593" height="117" fill="white"/>
</clipPath>
</defs>
</svg>
