<svg width="653" height="170" viewBox="0 0 653 170" fill="none" xmlns="http://www.w3.org/2000/svg">
<g clip-path="url(#clip0_12_33)">
<path fill-rule="evenodd" clip-rule="evenodd" d="M0 122.801L23.4297 104.813C35.8757 121.091 49.0973 128.597 63.8185 128.597C78.4604 128.597 91.3082 121.18 103.194 105.028L126.955 122.581C109.809 145.87 88.4957 158.173 63.8185 158.173C39.2208 158.173 17.7019 145.954 0 122.801Z" fill="url(#paint0_linear_12_33)"/>
<path fill-rule="evenodd" clip-rule="evenodd" d="M62.4964 44.6255L20.7994 80.6374L1.52307 58.2316L62.5852 5.49829L123.166 58.2736L103.801 80.6L62.4964 44.6255Z" fill="url(#paint1_linear_12_33)"/>
<path d="M215.558 135.958C201.323 135.958 189.456 131.334 179.832 122.086C170.208 112.707 165.466 100.685 165.466 86.0137C165.466 71.2212 170.339 59.0632 179.958 49.5487C189.722 39.9035 201.589 35.1534 215.698 35.1534C233.101 35.1534 248.519 42.6733 257.493 54.4437L241.796 70.955C234.283 62.8885 226.107 58.7969 217.277 58.7969C209.76 58.7969 203.565 61.3005 198.417 66.457C193.408 71.6183 190.909 78.0967 190.909 85.8875C190.909 93.4169 193.408 99.7598 198.417 104.916C203.565 109.933 209.76 112.436 217.142 112.436C226.766 112.436 235.208 108.209 242.193 99.8859L258.545 115.612C254.059 121.558 247.995 126.449 240.478 130.279C232.961 134.109 224.659 135.958 215.558 135.958ZM286.202 33.6914V134.506H263.006V33.6914H286.202ZM308.193 55.0883C300.419 55.0883 294.752 49.4086 294.752 41.6224C294.752 34.0884 300.685 28.4041 308.193 28.4041C315.715 28.4041 321.517 34.0884 321.517 41.6224C321.517 49.4086 315.71 55.1023 308.193 55.1023V55.0883ZM319.934 61.5667V134.506H296.593V61.5667H319.934ZM364.602 136.094C353.128 136.094 343.905 132.525 336.659 125.388C329.534 118.256 325.974 109.134 325.974 97.9055C325.974 86.6722 329.534 77.5642 336.785 70.4225C344.041 63.2856 353.394 59.7264 364.994 59.7264C380.159 59.7264 393.479 67.1203 399.669 80.9925L381.085 90.7779C377.394 84.5657 372.25 81.3896 365.527 81.3896C360.645 81.3896 356.692 82.9776 353.52 86.1538C352.016 87.7132 350.835 89.5538 350.044 91.5704C349.252 93.5869 348.867 95.7397 348.909 97.9055C348.909 107.551 355.893 114.688 365.261 114.688C371.984 114.688 378.179 110.988 380.818 105.309L399.412 116.402C393.077 128.56 380.024 136.094 364.602 136.094ZM480.34 134.506H452.644L431.144 105.566L427.72 108.742V134.506H404.533V33.6914H427.734V82.7114L449.612 61.5667H477.962L446.72 90.904L480.34 134.506ZM481.895 96.5837V36.8582H506.68V96.1913C506.68 107.154 513.01 112.441 522.111 112.441C531.072 112.441 537.398 106.887 537.398 96.1866V36.8582H562.323V96.5837C562.323 125.388 542.406 136.225 522.111 136.225C501.938 136.225 481.895 125.388 481.895 96.5837ZM617.405 59.7264C627.823 59.7264 636.265 63.421 642.983 70.8196C649.706 78.0873 653 87.2047 653 97.9055C653 108.616 649.576 117.724 642.857 125.258C636.125 132.652 627.692 136.36 617.54 136.36C609.49 136.36 602.506 133.716 596.839 128.434V164.502H573.498V61.5667H596.446V68.3113C602.113 62.6223 609.098 59.7264 617.405 59.7264ZM629.267 98.1671C629.267 88.6573 622.422 81.3896 612.924 81.3896C603.431 81.3896 596.446 88.6573 596.446 98.1717C596.446 102.796 598.021 106.761 601.058 110.064C604.216 113.366 608.173 114.954 612.924 114.954C617.666 114.954 621.623 113.366 624.655 110.064C627.68 106.848 629.338 102.585 629.281 98.1717L629.267 98.1671Z" fill="white"/>
</g>
<defs>
<linearGradient id="paint0_linear_12_33" x1="0" y1="141.106" x2="126.955" y2="141.106" gradientUnits="userSpaceOnUse">
<stop stop-color="#8930FD"/>
<stop offset="1" stop-color="#49CCF9"/>
</linearGradient>
<linearGradient id="paint1_linear_12_33" x1="1.52307" y1="56.5968" x2="123.166" y2="56.5968" gradientUnits="userSpaceOnUse">
<stop stop-color="#FF02F0"/>
<stop offset="1" stop-color="#FFC800"/>
</linearGradient>
<clipPath id="clip0_12_33">
<rect width="653" height="170" fill="white"/>
</clipPath>
</defs>
</svg>
