<svg width="366" height="154" viewBox="0 0 366 154" fill="none" xmlns="http://www.w3.org/2000/svg">
<g clip-path="url(#clip0_12_2)">
<path d="M187.316 29.5186H200.955V96.88C200.955 114.642 192.841 127.042 174.023 127.042C166.945 127.042 161.42 125.869 157.622 124.528V111.626C161.765 113.302 166.772 114.14 171.778 114.14C183.345 114.14 187.316 107.437 187.316 97.7179V29.5186Z" fill="#FCFCFC"/>
<path d="M225.989 24.324C231.34 24.324 235.139 27.5077 235.139 33.205C235.139 38.7347 231.34 42.086 225.989 42.086C220.636 42.086 216.839 38.9022 216.839 33.205C216.839 27.6753 220.636 24.324 225.989 24.324ZM219.256 52.6426H232.376V126.372H219.256V52.6426Z" fill="#FCFCFC"/>
<path d="M264.832 126.372H252.056V52.6425H264.832V65.5453C269.32 56.8318 276.917 50.6319 291.764 51.4697V63.8696C275.018 62.1939 264.832 67.0531 264.832 82.8044V126.372Z" fill="#FCFCFC"/>
<path d="M353.051 113.134C348.218 122.853 339.068 127.88 327.328 127.88C307.129 127.88 296.943 111.291 296.943 89.5072C296.943 68.7288 307.647 51.1348 328.882 51.1348C339.931 51.1348 348.563 55.9939 353.051 65.5453V52.6425H366.172V126.372H353.051V113.134ZM330.781 116.15C342.521 116.15 352.879 108.945 352.879 92.5232V86.6587C352.879 70.237 343.384 63.0317 332.162 63.0317C317.487 63.0317 309.891 72.4156 309.891 89.5072C310.064 107.269 317.315 116.15 330.781 116.15Z" fill="#FCFCFC"/>
<path d="M118.777 14.4375H59.043C59.043 28.8482 71.1278 40.5778 85.9749 40.5778H97.0237V50.7993C97.0237 65.2099 109.109 76.9398 123.956 76.9398V19.4645C123.956 16.6159 121.712 14.4375 118.777 14.4375Z" fill="#2684FF"/>
<path d="M89.2554 43.2584H29.5214C29.5214 57.6691 41.6063 69.3986 56.4536 69.3986H67.5025V79.7879C67.5025 94.1984 79.5877 105.928 94.4348 105.928V48.2852C94.4348 45.6043 92.1901 43.2584 89.2554 43.2584Z" fill="url(#paint0_linear_12_2)"/>
<path d="M59.7341 72.2477H0C0 86.6582 12.0849 98.3877 26.9321 98.3877H37.9811V108.609C37.9811 123.02 50.0659 134.75 64.913 134.75V77.2743C64.913 74.4258 62.4964 72.2477 59.7341 72.2477Z" fill="url(#paint1_linear_12_2)"/>
</g>
<defs>
<linearGradient id="paint0_linear_12_2" x1="93.1639" y1="43.403" x2="68.5475" y2="69.5574" gradientUnits="userSpaceOnUse">
<stop offset="0.176" stop-color="#0052CC"/>
<stop offset="1" stop-color="#2684FF"/>
</linearGradient>
<linearGradient id="paint1_linear_12_2" x1="65.3026" y1="72.4402" x2="36.7911" y2="101.021" gradientUnits="userSpaceOnUse">
<stop offset="0.176" stop-color="#0052CC"/>
<stop offset="1" stop-color="#2684FF"/>
</linearGradient>
<clipPath id="clip0_12_2">
<rect width="366" height="154" fill="white"/>
</clipPath>
</defs>
</svg>
