<svg width="512" height="128" viewBox="0 0 512 128" fill="none" xmlns="http://www.w3.org/2000/svg">
<g clip-path="url(#clip0_11_9)">
<path d="M4.08562 51.2921L76.6724 123.879C77.7317 124.938 77.2207 126.738 75.7479 127.013C73.2917 127.472 70.7863 127.791 68.24 127.96C67.6963 127.997 67.1653 127.792 66.78 127.406L0.558132 61.1845C0.172844 60.7992 -0.0321556 60.2682 0.00411594 59.7245C0.173991 57.1782 0.492659 54.6728 0.951504 52.2166C1.22663 50.7438 3.02622 50.2328 4.08562 51.2921ZM2.04025 80.6822C1.55592 78.8757 3.69011 77.7361 5.0126 79.0586L48.9059 122.952C50.2284 124.274 49.0888 126.409 47.2823 125.924C25.2731 120.023 7.94116 102.691 2.04025 80.6822ZM8.40196 32.0733C9.01835 31.0057 10.4751 30.8421 11.3468 31.7139L96.2506 116.618C97.1224 117.489 96.9589 118.946 95.8912 119.563C94.0949 120.6 92.2436 121.552 90.3426 122.414C89.6272 122.739 88.7883 122.575 88.2329 122.02L5.94487 39.7316C5.38941 39.1762 5.2258 38.3373 5.55028 37.6219C6.41252 35.7209 7.3649 33.8696 8.40196 32.0733ZM63.9123 0C99.2874 0 127.965 28.6772 127.965 64.0522C127.965 82.8316 119.883 99.7235 107.007 111.439C106.264 112.116 105.124 112.071 104.413 111.36L16.604 23.5513C15.8936 22.8407 15.8488 21.7004 16.5251 20.9572C28.2409 8.08185 45.1329 0 63.9123 0Z" fill="#7396FF"/>
<path d="M258.052 35.248C262.643 35.248 266.365 31.5126 266.365 26.9048C266.365 22.297 262.643 18.5616 258.052 18.5616C253.461 18.5616 249.74 22.297 249.74 26.9048C249.74 31.4124 253.301 35.0852 257.754 35.2427L258.052 35.248ZM186.85 108.009V18.5666H201.623V94.9231H241.454V108.009H186.85ZM291.994 71.5119V108.009H277.7V44.6191H291.815V55.4842L291.994 55.3642C293.429 51.9626 295.742 49.1212 298.932 46.8401C302.121 44.519 306.188 43.3584 311.133 43.3584C315.519 43.3584 319.505 44.339 323.094 46.2999C326.683 48.2208 329.553 51.0421 331.706 54.7639C333.859 58.4857 334.936 63.0479 334.936 68.4504V108.009H320.642V70.4314C320.642 65.6291 319.365 61.9873 316.814 59.5062C314.303 56.985 310.933 55.7243 306.706 55.7243C303.995 55.7243 301.523 56.2846 299.291 57.4051C297.058 58.5258 295.284 60.2465 293.968 62.5676C292.652 64.8887 291.994 67.8701 291.994 71.5119ZM439.602 43.3584C443.588 43.3584 447.177 43.8786 450.366 44.9193C453.556 45.9197 456.268 47.3603 458.5 49.2413C460.774 51.1222 462.508 53.3432 463.704 55.9044C464.899 58.4657 465.498 61.287 465.498 64.3685V108.009H451.802V99.065H451.563C450.606 100.866 449.31 102.527 447.675 104.047C446.08 105.568 444.048 106.789 441.574 107.709C439.102 108.59 436.133 109.03 432.663 109.03C428.438 109.03 424.69 108.329 421.42 106.929C418.151 105.488 415.559 103.367 413.645 100.566C411.731 97.7243 410.775 94.2027 410.775 90.0006C410.775 86.3589 411.452 83.3776 412.808 81.0564C414.163 78.7353 415.998 76.8744 418.31 75.4737C420.662 74.0732 423.334 73.0126 426.324 72.2923C429.315 71.5719 432.424 71.0316 435.654 70.6715L438.301 70.3707C441.019 70.0557 443.246 69.7757 444.985 69.5309C447.297 69.2108 448.931 68.7105 449.889 68.0302C450.885 67.3499 451.384 66.2894 451.384 64.8488V64.3685C451.384 62.4475 450.905 60.7667 449.948 59.3261C448.991 57.8854 447.615 56.7448 445.822 55.9044C444.067 55.0641 441.934 54.6438 439.423 54.6438C436.91 54.6438 434.698 55.0641 432.784 55.9044C430.87 56.7048 429.354 57.8254 428.238 59.266C427.122 60.7067 426.483 62.3475 426.324 64.1883H412.508C412.708 60.2666 413.924 56.7449 416.156 53.6234C418.39 50.5018 421.479 48.0207 425.427 46.1798C429.415 44.2989 434.139 43.3584 439.602 43.3584ZM451.443 77.3947C451.054 77.6793 450.459 77.9481 449.659 78.201L449.35 78.2951C448.433 78.5752 447.317 78.8554 446.001 79.1355L441.755 79.9159C440.239 80.156 438.684 80.3962 437.089 80.6362C434.896 80.9164 432.863 81.4165 430.989 82.137C429.115 82.8573 427.601 83.8378 426.443 85.0783C425.327 86.3189 424.769 87.9398 424.769 89.9407C424.769 92.5018 425.785 94.5229 427.82 96.0036C429.852 97.4443 432.584 98.1646 436.014 98.1646C439.402 98.1646 442.253 97.5442 444.566 96.3037C446.878 95.023 448.592 93.3623 449.708 91.3213C450.865 89.2404 451.443 86.9592 451.443 84.4781V77.3947ZM477.969 108.009V44.6191H491.724V55.0641H491.905C493.061 51.4623 494.875 48.7211 497.346 46.8401C499.858 44.9193 503.148 43.9588 507.215 43.9588C508.212 43.9588 509.11 43.9987 509.906 44.0789L511.395 44.1588C511.612 44.1722 511.814 44.1855 512 44.1988V57.1049L511.678 57.0593C511.135 56.9879 510.325 56.9031 509.249 56.8049C507.933 56.6848 506.538 56.6248 505.062 56.6248C502.709 56.6248 500.557 57.165 498.602 58.2455C496.649 59.3261 495.094 60.9869 493.938 63.2279C492.821 65.429 492.263 68.2103 492.263 71.5719V108.009H477.969ZM250.875 108.009V44.6191H265.169V108.009H250.875ZM374.38 43.1784C378.886 43.1784 382.972 43.9788 386.641 45.5795C390.349 47.1803 393.519 49.4614 396.149 52.4228C398.781 55.3441 400.815 58.8258 402.25 62.8678C403.685 66.8697 404.404 71.3118 404.404 76.1941V80.0359H358.428C358.538 83.3435 359.191 86.3049 360.386 88.9202C361.701 91.7616 363.615 93.9826 366.127 95.5833C368.678 97.1841 371.729 97.9845 375.277 97.9845C377.909 97.9845 380.221 97.5843 382.215 96.784C384.208 95.9835 385.864 94.883 387.178 93.4823C388.534 92.0416 389.511 90.3808 390.11 88.4999H403.566C402.769 92.6219 401.034 96.2637 398.363 99.4252C395.691 102.547 392.342 105.008 388.315 106.809C384.328 108.569 379.902 109.45 375.038 109.45C368.738 109.45 363.295 108.029 358.71 105.188C354.126 102.347 350.596 98.4447 348.125 93.4823C345.653 88.48 344.416 82.7772 344.416 76.3742C344.416 69.9311 345.692 64.2084 348.244 59.206C350.796 54.2037 354.324 50.2818 358.83 47.4404C363.336 44.5991 368.519 43.1784 374.38 43.1784ZM374.559 54.7038C371.29 54.7038 368.439 55.4443 366.007 56.925C363.615 58.4057 361.741 60.5066 360.386 63.2279C359.418 65.1987 358.806 67.4398 358.55 69.9512H390.628C390.372 67.4398 389.76 65.1987 388.794 63.2279C387.478 60.5066 385.604 58.4057 383.172 56.925C380.739 55.4443 377.869 54.7038 374.559 54.7038Z" fill="white"/>
</g>
<defs>
<clipPath id="clip0_11_9">
<rect width="512" height="127.964" fill="white"/>
</clipPath>
</defs>
</svg>
