<svg width="512" height="178" viewBox="0 0 512 178" fill="none" xmlns="http://www.w3.org/2000/svg">
<g clip-path="url(#clip0_12_21)">
<path d="M10.691 7.66553L109.012 0.403954C121.089 -0.632567 124.193 0.0663443 131.786 5.58656L163.172 27.697C168.349 31.4996 170.072 32.5361 170.072 36.6763V157.937C170.072 165.537 167.312 170.032 157.652 170.719L43.4747 177.631C36.2249 177.975 32.7718 176.938 28.9752 172.099L5.86375 142.046C1.71766 136.514 0 132.374 0 127.535V19.7484C0 13.5352 2.76011 8.35259 10.691 7.66553Z" fill="white"/>
<path d="M109.012 0.403954L10.691 7.66553C2.76011 8.35259 0 13.5352 0 19.7484V127.535C0 132.374 1.71766 136.514 5.86375 142.046L28.9752 172.099C32.7718 176.938 36.2249 177.975 43.4747 177.631L157.652 170.719C167.306 170.032 170.072 165.537 170.072 157.937V36.6763C170.072 32.7493 168.521 31.618 163.954 28.2656C163.691 28.0764 163.429 27.8868 163.166 27.697L131.786 5.58656C124.193 0.0663443 121.089 -0.632567 109.012 0.403954ZM46.0571 34.6921C36.7343 35.3199 34.6198 35.4621 29.3247 31.1561L15.8617 20.4473C14.4935 19.0613 15.1806 17.3318 18.6278 16.9883L113.147 10.0821C121.083 9.38911 125.218 12.1551 128.321 14.5717L144.533 26.317C145.226 26.6664 146.949 28.7336 144.876 28.7336L47.2654 34.6092L46.0571 34.6921ZM35.1884 156.901V53.9595C35.1884 49.464 36.5685 47.3909 40.7027 47.0415L152.813 40.4788C156.615 40.1353 158.333 42.5519 158.333 47.0415V149.296C158.333 153.791 157.64 157.594 151.433 157.937L44.1499 164.157C37.9426 164.5 35.1884 162.433 35.1884 156.901ZM141.091 59.4797C141.778 62.5893 141.091 65.6989 137.982 66.0542L132.811 67.0789V143.083C128.321 145.499 124.187 146.879 120.734 146.879C115.214 146.879 113.834 145.15 109.699 139.973L75.8852 86.7728V138.243L86.5821 140.666C86.5821 140.666 86.5821 146.885 77.9523 146.885L54.1597 148.265C53.4667 146.879 54.1597 143.426 56.5704 142.739L62.7836 141.015V72.9604L54.1597 72.2615C53.4667 69.152 55.1903 64.6623 60.0235 64.3129L85.5515 62.5952L120.734 116.482V68.8084L111.767 67.7778C111.074 63.9694 113.834 61.2033 117.281 60.8657L141.091 59.4797Z" fill="black"/>
<path d="M245.413 125.87V79.0197H246.224L280.009 125.87H290.646V57.0218H278.818V103.825H278.007L244.222 57.0218H233.543V125.865H245.419L245.413 125.87ZM324.076 126.925C339.683 126.925 349.177 116.714 349.177 99.7738C349.177 82.8815 339.635 72.6229 324.076 72.6229C308.569 72.6229 298.98 82.9289 298.98 99.7738C298.98 116.714 308.427 126.925 324.076 126.925ZM324.076 116.998C315.825 116.998 311.104 110.702 311.104 99.7738C311.104 88.8933 315.825 82.5498 324.076 82.5498C332.285 82.5498 337.006 88.8933 337.006 99.7738C337.006 110.702 332.332 116.998 324.076 116.998ZM359.987 60.8895V74.0089H351.736V83.456H359.987V111.94C359.987 122.056 364.761 126.113 376.737 126.113C379.023 126.113 381.221 125.876 382.938 125.539V116.281C381.505 116.423 380.599 116.518 378.928 116.518C373.971 116.518 371.773 114.232 371.773 109.079V83.456H382.938V74.0089H371.773V60.8835H359.987V60.8895ZM390.028 125.87H401.815V73.6712H390.028V125.87ZM395.898 65.0415C399.807 65.0415 402.958 61.8845 402.958 57.928C402.958 53.9655 399.813 50.7671 395.898 50.7671C392.036 50.7671 388.838 53.9655 388.838 57.928C388.838 61.8845 392.036 65.0355 395.898 65.0355V65.0415ZM434.148 126.925C449.75 126.925 459.244 116.714 459.244 99.7738C459.244 82.8815 449.702 72.6229 434.148 72.6229C418.636 72.6229 409.047 82.9289 409.047 99.7738C409.047 116.714 418.494 126.925 434.148 126.925ZM434.148 116.998C425.892 116.998 421.165 110.702 421.165 99.7738C421.165 88.8933 425.892 82.5498 434.148 82.5498C442.352 82.5498 447.078 88.8933 447.078 99.7738C447.078 110.702 442.399 116.998 434.148 116.998ZM466.286 125.87H478.121V95.4797C478.121 87.7975 482.563 82.9289 489.617 82.9289C496.825 82.9289 500.16 86.9387 500.16 94.9051V125.87H512V92.0917C512 79.6357 505.651 72.6229 494.012 72.6229C486.229 72.6229 480.981 76.2004 478.5 82.0226H477.688V73.6712H466.286V125.87Z" fill="white"/>
</g>
<defs>
<clipPath id="clip0_12_21">
<rect width="512" height="178" fill="white"/>
</clipPath>
</defs>
</svg>
