<svg width="636" height="781" viewBox="0 0 636 781" fill="none" xmlns="http://www.w3.org/2000/svg">
<path d="M83.1136 395.313V298.909C83.1136 288.92 91.1989 280.83 101.182 280.83C111.165 280.83 119.25 288.92 119.25 298.909V395.337V395.314C119.25 405.303 111.165 413.393 101.182 413.393C91.1989 413.393 83.1136 405.302 83.1136 395.313ZM534.818 280.83C524.904 280.943 516.885 288.965 516.75 298.909V395.337V395.314C516.75 405.303 524.835 413.393 534.818 413.393C544.801 413.393 552.886 405.303 552.886 395.314V298.91C552.751 288.966 544.733 280.943 534.818 280.83ZM366.174 545.977H269.826C259.843 545.977 251.758 554.067 251.758 564.056C251.758 574.044 259.843 582.134 269.826 582.134H366.197H366.175C376.158 582.134 384.243 574.044 384.243 564.056C384.243 554.067 376.157 545.977 366.174 545.977ZM197.53 545.977H125.28C121.938 545.977 119.25 543.288 119.25 539.943V467.628C119.25 457.662 111.165 449.55 101.182 449.55C91.1989 449.55 83.1136 457.662 83.1136 467.628V539.943C83.2492 563.197 102.04 581.998 125.28 582.134H197.553C207.514 582.134 215.621 574.044 215.621 564.056C215.621 554.067 207.514 545.977 197.553 545.977H197.53ZM197.53 112.088H125.28C102.04 112.224 83.2495 131.025 83.1136 154.279V226.594C83.1136 236.56 91.1989 244.673 101.182 244.673C111.165 244.673 119.25 236.56 119.25 226.594V154.279C119.25 150.935 121.938 148.245 125.28 148.245H197.553C207.514 148.245 215.621 140.155 215.621 130.167C215.621 120.178 207.514 112.088 197.553 112.088H197.53ZM510.72 112.088H438.447C428.487 112.088 420.379 120.178 420.379 130.167C420.379 140.155 428.487 148.245 438.447 148.245H510.72C512.323 148.245 513.859 148.878 514.988 150.008C516.117 151.138 516.75 152.675 516.75 154.279V226.594C516.75 236.56 524.835 244.673 534.818 244.673C544.801 244.673 552.886 236.56 552.886 226.594V154.279C552.751 131.026 533.96 112.224 510.72 112.088ZM269.826 148.245H366.197H366.175C376.158 148.245 384.243 140.155 384.243 130.167C384.243 120.178 376.158 112.088 366.175 112.088H269.826C259.844 112.088 251.758 120.178 251.758 130.167C251.758 140.155 259.843 148.245 269.826 148.245ZM534.818 461.617H468.576V395.313C468.576 385.347 460.468 377.235 450.508 377.235C440.525 377.235 432.44 385.347 432.44 395.313V461.594L366.174 461.617C356.214 461.617 348.106 469.707 348.106 479.696C348.106 489.662 356.214 497.774 366.174 497.774H432.416L432.439 564.055C432.439 574.044 440.524 582.134 450.507 582.134C460.468 582.134 468.575 574.044 468.575 564.055V497.774H534.818C544.801 497.774 552.886 489.662 552.886 479.696C552.886 469.707 544.801 461.617 534.818 461.617Z" fill="#FEF08A"/>
</svg>
