<svg width="705" height="865" viewBox="0 0 705 865" fill="none" xmlns="http://www.w3.org/2000/svg">
<path d="M272.386 402.737C272.386 408.744 276.392 414 282.175 415.602C384.97 443.96 404.698 463.708 433.09 566.477C434.692 572.259 439.949 576.264 445.958 576.264C451.967 576.264 457.224 572.259 458.826 566.477C487.217 463.709 506.944 443.987 609.741 415.602C615.524 414 619.53 408.744 619.53 402.737C619.53 396.731 615.524 391.475 609.741 389.873C506.946 361.49 487.193 341.742 458.826 238.997C457.224 233.216 451.967 229.211 445.958 229.211C439.949 229.211 434.692 233.216 433.09 238.997C404.724 341.74 384.972 361.488 282.175 389.873C276.392 391.475 272.386 396.731 272.386 402.737ZM445.957 288.006C468.69 352.907 495.803 380.01 560.744 402.763C495.826 425.49 468.69 452.595 445.957 517.52C423.225 452.619 396.112 425.516 331.171 402.763C396.088 380.037 423.224 352.931 445.957 288.006Z" fill="#FEF08A"/>
<path d="M144.454 243.808C206.993 261.078 218.031 272.116 235.284 334.614C236.886 340.396 242.169 344.4 248.152 344.4C254.136 344.4 259.443 340.395 261.02 334.614C278.27 272.117 289.311 261.076 351.85 243.808C357.633 242.206 361.639 236.95 361.639 230.943C361.639 224.936 357.633 219.68 351.85 218.079C289.312 200.809 278.274 189.771 261.02 127.273C259.443 121.491 254.161 117.487 248.152 117.487C242.144 117.487 236.886 121.491 235.284 127.273C218.01 189.795 206.969 200.811 144.454 218.079C138.671 219.68 134.666 224.936 134.666 230.943C134.666 236.95 138.672 242.206 144.454 243.808ZM248.179 173.102C260.622 202.662 276.445 218.48 306.011 230.919C276.419 243.358 260.597 259.177 248.179 288.736C235.737 259.176 219.914 243.358 190.347 230.919C219.914 218.48 235.737 202.661 248.179 173.102Z" fill="#FEF08A"/>
<path d="M95.2353 544.155C161.653 562.502 174.42 575.242 192.75 641.619C194.352 647.4 199.609 651.405 205.618 651.405C211.626 651.405 216.884 647.4 218.486 641.619C236.812 575.219 249.58 562.474 316 544.155C321.783 542.554 325.789 537.298 325.789 531.291C325.789 525.284 321.758 520.028 316 518.426C249.583 500.105 236.816 487.34 218.486 420.963C216.884 415.181 211.626 411.177 205.618 411.177C199.609 411.177 194.352 415.181 192.75 420.963C174.423 487.337 161.655 500.107 95.2353 518.426C89.4521 520.028 85.4467 525.284 85.4467 531.291C85.4467 537.298 89.4523 542.554 95.2353 544.155ZM205.619 467.267C219.188 500.48 236.413 517.725 269.66 531.291C236.438 544.856 219.213 562.076 205.619 595.315C192.05 562.101 174.8 544.881 141.578 531.291C174.8 517.725 192.05 500.505 205.619 467.267Z" fill="#FEF08A"/>
</svg>
