<svg width="530" height="663" viewBox="0 0 530 663" fill="none" xmlns="http://www.w3.org/2000/svg">
<path fill-rule="evenodd" clip-rule="evenodd" d="M127.2 95.4721C112.565 95.4721 100.7 107.346 100.7 121.992C100.7 136.639 112.565 148.512 127.2 148.512C141.835 148.512 153.7 136.639 153.7 121.992C153.7 107.346 141.835 95.4721 127.2 95.4721ZM79.5 121.992C79.5 95.628 100.856 74.2561 127.2 74.2561C153.544 74.2561 174.9 95.628 174.9 121.992C174.9 148.356 153.544 169.728 127.2 169.728C100.856 169.728 79.5 148.356 79.5 121.992ZM190.8 106.08C190.8 100.221 195.546 95.4721 201.4 95.4721H434.6C440.454 95.4721 445.2 100.221 445.2 106.08C445.2 111.939 440.454 116.688 434.6 116.688H201.4C195.546 116.688 190.8 111.939 190.8 106.08ZM190.8 148.512C190.8 142.653 195.546 137.904 201.4 137.904H302.1C307.954 137.904 312.7 142.653 312.7 148.512C312.7 154.371 307.954 159.12 302.1 159.12H201.4C195.546 159.12 190.8 154.371 190.8 148.512ZM328.6 148.512C328.6 142.653 333.346 137.904 339.2 137.904H371C376.854 137.904 381.6 142.653 381.6 148.512C381.6 154.371 376.854 159.12 371 159.12H339.2C333.346 159.12 328.6 154.371 328.6 148.512ZM127.2 238.68C112.565 238.68 100.7 250.554 100.7 265.2C100.7 279.847 112.565 291.72 127.2 291.72C141.835 291.72 153.7 279.847 153.7 265.2C153.7 250.554 141.835 238.68 127.2 238.68ZM79.5 265.2C79.5 238.836 100.856 217.464 127.2 217.464C153.544 217.464 174.9 238.836 174.9 265.2C174.9 291.564 153.544 312.936 127.2 312.936C100.856 312.936 79.5 291.564 79.5 265.2ZM190.8 243.984C190.8 238.125 195.546 233.376 201.4 233.376H434.6C440.454 233.376 445.2 238.125 445.2 243.984C445.2 249.843 440.454 254.592 434.6 254.592H201.4C195.546 254.592 190.8 249.843 190.8 243.984ZM190.8 291.72C190.8 285.861 195.546 281.112 201.4 281.112H275.6C281.454 281.112 286.2 285.861 286.2 291.72C286.2 297.579 281.454 302.328 275.6 302.328H201.4C195.546 302.328 190.8 297.579 190.8 291.72ZM307.4 291.72C307.4 285.861 312.146 281.112 318 281.112H371C376.854 281.112 381.6 285.861 381.6 291.72C381.6 297.579 376.854 302.328 371 302.328H318C312.146 302.328 307.4 297.579 307.4 291.72ZM127.2 381.888C112.565 381.888 100.7 393.762 100.7 408.408C100.7 423.055 112.565 434.928 127.2 434.928C141.835 434.928 153.7 423.055 153.7 408.408C153.7 393.762 141.835 381.888 127.2 381.888ZM79.5 408.408C79.5 382.044 100.856 360.672 127.2 360.672C153.544 360.672 174.9 382.044 174.9 408.408C174.9 434.772 153.544 456.144 127.2 456.144C100.856 456.144 79.5 434.772 79.5 408.408ZM190.8 381.888C190.8 376.029 195.546 371.28 201.4 371.28H434.6C440.454 371.28 445.2 376.029 445.2 381.888C445.2 387.747 440.454 392.496 434.6 392.496H201.4C195.546 392.496 190.8 387.747 190.8 381.888ZM190.8 429.624C190.8 423.765 195.546 419.016 201.4 419.016H243.8C249.654 419.016 254.4 423.765 254.4 429.624C254.4 435.483 249.654 440.232 243.8 440.232H201.4C195.546 440.232 190.8 435.483 190.8 429.624ZM265 429.624C265 423.765 269.746 419.016 275.6 419.016H371C376.854 419.016 381.6 423.765 381.6 429.624C381.6 435.483 376.854 440.232 371 440.232H275.6C269.746 440.232 265 435.483 265 429.624Z" fill="#FEF08A"/>
</svg>
